<svg viewBox="0 0 25 25" class='chess-piece'>

  <circle style="fill:#bf7900;fill-opacity:1;fill-rule:evenodd;stroke-width:0.240109" id="path1339" cx="12.5" cy="12.5"
    r="12.4" />
  <circle
    style="fill:none;fill-rule:evenodd;stroke-width:1.5;stroke-miterlimit:4;stroke-dasharray:none;stroke-opacity:1"
    [style.stroke]="getColor()" id="path2325" cx="12.5" cy="12.5" r="10.3" />
  <g class="piece-text" [style.fill]='getColor()' [ngSwitch]="piece">
    <g *ngSwitchCase="'b'" aria-label="象">
      <path
        d="m 13.238281,3.5139866 q 0.859375,0.9375 0.46875,1.40625 0.703125,0.3125 0.9375,0.9375 0.3125,0.625 -0.15625,1.171875 -0.15625,0.3125 -1.09375,1.015625 -0.15625,0.15625 -0.234375,0.234375 1.796875,-0.3125 2.734375,-0.078125 1.25,0.390625 1.640625,1.328125 0.3125,0.5468754 -0.234375,0.8593754 -0.07813,0 -0.15625,0.07813 -0.9375,0.390625 -1.640625,0.9375 -0.859375,0.625 -2.34375,0.625 -0.07813,0.234375 -0.546875,0.46875 -0.07813,0.07813 -0.3125,0.234375 -0.703125,0.46875 -1.40625,1.09375 1.328125,0.234375 2.1875,0.9375 1.484375,-1.40625 2.65625,-2.265625 0.234375,-0.3125 0.9375,0.07813 0.390625,0.46875 0.07813,1.328125 -1.328125,1.40625 -2.5,2.65625 2.265625,0.3125 4.0625,0.78125 0.625,0 1.25,1.25 0.3125,0.625 -0.15625,0.625 -1.40625,-0.15625 -2.890625,-0.703125 -1.328125,-0.46875 -2.734375,-0.46875 -0.703125,2.734375 -2.265625,3.671875 -0.46875,0.46875 -1.171875,0.07813 -2.8124998,-1.328125 -3.4374998,-3.203125 -0.15625,-0.546875 -0.078125,-0.625 0.15625,0.07813 0.46875,0.625 0.15625,-1.40625 0.7812501,-1.71875 1.171875,-0.9375 1.40625,-1.71875 -2.8125001,0.859375 -3.9062501,1.71875 -0.234375,0.15625 -0.234375,0.07813 -0.078125,-0.07813 0,-0.390625 0.46875,-1.40625 0.859375,-1.484375 1.5625,-0.390625 3.7500001,-2.265625 -1.09375,0.3125 -1.328125,0 -0.078125,0.46875 -0.234375,0.546875 -0.234375,0.15625 -0.3125,-0.15625 -0.5468751,-1.328125 -0.3125001,-1.796875 0.4687501,-1.171875 0.078125,-1.6406254 0,-0.46875 0.3906251,-0.3125 0.46875,0.46875 0.546875,0.7812504 0.625,-0.6250004 1.7187497,-1.0937504 -0.5468747,0.15625 -0.9374997,0.078125 -0.46875,0 -0.078125,-0.234375 0.078125,-0.078125 0.15625,-0.078125 2.3437497,-1.015625 3.6718747,-2.734375 0.15625,-0.15625 0.15625,-0.3125 -0.07813,-0.078125 -0.3125,0 -1.171875,0.46875 -3.4374997,1.71875 -0.3125,0.15625 -0.46875,0.234375 -0.546875,0.3125 -0.625,-0.234375 0.15625,-0.78125 0.234375,-1.25 0.15625,-0.546875 0.703125,-0.625 0.6249997,-0.078125 2.1093747,-1.796875 0.234375,-0.3125 0.234375,-0.390625 0,-0.15625 -0.234375,-0.15625 -0.234375,0 -0.3125,-0.078125 0,-0.078125 0.234375,-0.15625 0.78125,-0.3125 1.640625,0.390625 z m 2.03125,5.15625 q -0.625,0.3125 -2.109375,0.78125 -0.390625,0.15625 -0.625,0.234375 0.703125,0.7031254 0.07813,1.3281254 0.15625,0 0.390625,0.234375 1.796875,-0.703125 2.65625,-2.0312504 0.234375,-0.234375 0.07813,-0.46875 -0.15625,-0.15625 -0.46875,-0.078125 z m -4.53125,1.4062504 q -0.8593747,0.15625 -1.7187497,0.9375 l -0.15625,0.78125 q 1.015625,-0.3125 1.8749997,-0.546875 0.46875,-0.46875 0.46875,-0.703125 0,-0.15625 -0.46875,-0.46875 z m 4.6875,2.96875 q -0.15625,0.15625 -0.46875,0.390625 -0.9375,0.859375 -1.640625,1.5625 0.234375,0.3125 0.3125,0.703125 0.3125,-0.3125 1.25,-1.484375 0.546875,-0.625 0.78125,-0.9375 0.15625,-0.234375 0.07813,-0.3125 -0.07813,-0.07813 -0.3125,0.07813 z m -4.609375,1.796875 q 0.07813,0.07813 0.15625,0.46875 0.07813,0.15625 0.07813,0.234375 0.3125,-0.15625 0.78125,0.3125 0.234375,-0.234375 0.46875,-0.390625 -0.546875,-0.390625 -1.484375,-0.625 z m 1.640625,0.9375 q -0.15625,0.234375 -0.390625,0.46875 -0.9375,2.65625 -2.4218747,3.59375 2.4999997,1.09375 2.8906247,-1.796875 -0.3125,0 -0.625,0 -0.46875,-0.15625 -0.07813,-0.546875 0.390625,-0.546875 0.859375,-0.703125 0,-0.546875 -0.234375,-1.015625 z m -1.5625,0.78125 q 0.15625,-0.234375 0.07813,-0.3125 -0.07813,-0.07813 -0.3125,0 -1.2499997,1.328125 -3.2031248,2.5 0.6250001,0.625 1.1718751,0.78125 0.234375,-0.625 0.625,-1.09375 1.0937497,-0.9375 1.6406247,-1.875 z" />
    </g>
    <g *ngSwitchCase="'k'" aria-label="将">
      <path
        d="m 9.171875,4.973959 q -0.078125,-0.3125 0.3125,-0.234375 1.484375,0.78125 1.171875,2.265625 -0.234375,1.015625 -0.703125,5.3125 0.15625,0.46875 0.46875,0.9375 0.234375,0.07813 -0.46875,0.46875 0.078125,2.421875 0.15625,2.8125 0.15625,1.875 -0.07813,3.125 -0.078125,0.234375 -0.15625,0.3125 -0.078125,0 -0.234375,-0.15625 -0.703125,-1.171875 -0.625,-5.625 -0.15625,0.07813 -0.625,0.390625 -0.859375,0.546875 -1.25,0.703125 0.546875,2.8125 -0.703125,3.59375 -0.390625,0.15625 -0.546875,-0.3125 0.078125,-0.15625 0.15625,-0.46875 0.15625,-0.3125 0.15625,-0.390625 0.3125,-1.25 -0.15625,-2.109375 -0.859375,-0.3125 -1.171875,-0.625 -0.46875,-0.78125 0,-1.484375 Q 6.04687,12.473959 6.20312,11.848959 5.73437,11.458334 5.42187,10.677084 5.343745,10.130209 5.968745,8.958334 q 0.9375,-1.5625 0.546875,-2.65625 -0.078125,-0.15625 0,-0.234375 0.078125,0 0.234375,0.078125 1.484375,0.78125 0.78125,3.28125 0,0.234375 0.078125,0.234375 0.078125,0.078125 0.3125,-0.078125 1.015625,-0.625 1.40625,-0.234375 0.078125,-3.828125 -0.15625,-4.375 z M 10.5,13.958334 q 0.546875,-0.15625 1.171875,-0.390625 1.328125,-0.234375 3.28125,-0.9375 -0.15625,-1.015625 -0.625,-1.40625 -1.640625,1.328125 -2.421875,1.25 -1.171875,-0.46875 -0.9375,-0.859375 1.40625,-0.46875 2.1875,-1.09375 -0.234375,-0.15625 -0.625,-0.703125 -0.703125,0.390625 -0.9375,0.078125 0,-0.078125 -0.07813,-0.234375 -0.07813,-0.46875 -0.07813,-0.859375 -0.07813,-0.703125 0.625,-0.703125 1.328125,-0.546875 2.734375,-2.65625 0.234375,-0.546875 -0.15625,-1.015625 -0.234375,-0.234375 -0.15625,-0.390625 0.07813,-0.15625 0.46875,-0.078125 0.390625,0 0.703125,0 0.46875,-0.078125 1.328125,0.546875 0.46875,0.234375 0.15625,0.78125 -0.625,0.546875 -1.171875,1.25 0.546875,0 0.859375,-0.234375 0.3125,-0.234375 0.625,-0.15625 0.546875,0.15625 1.015625,0.625 0.546875,0.46875 0.15625,0.859375 -1.640625,1.171875 -3.90625,3.203125 1.484375,0 1.875,1.40625 3.046875,-0.78125 3.203125,0.3125 0.234375,0.15625 0.3125,0.3125 0.3125,0.234375 0.234375,0.390625 -0.15625,0.234375 -0.546875,0.234375 -2.1875,0 -3.046875,0.15625 0,0.703125 0.15625,2.96875 0.07813,1.328125 0.07813,1.5625 -0.07813,1.5625 -0.78125,2.578125 -0.3125,0.625 -0.9375,0 -0.703125,-0.546875 -3.046875,-2.65625 -0.234375,-0.234375 -0.234375,-0.3125 0.07813,-0.07813 0.390625,0.07813 0.703125,0.390625 2.265625,1.015625 0.703125,0.390625 0.78125,-0.3125 0.3125,-2.34375 -0.234375,-4.765625 -1.484375,0.3125 -3.359375,1.171875 2.109375,0.390625 2.03125,1.5625 -0.07813,0.546875 -1.25,0.46875 -0.625,-0.15625 -1.015625,-0.15625 -0.234375,0 -0.234375,-0.07813 0,-0.15625 0.234375,-0.234375 0.9375,-0.390625 0.625,-0.78125 -0.07813,-0.07813 -0.15625,-0.234375 -0.07813,-0.15625 -0.390625,-0.546875 -0.78125,-0.390625 -1.171875,-0.625 -0.3125,-0.234375 0,-0.390625 z m -4.84375,0 q 0.703125,-0.3125 3.359375,-1.640625 l 0.15625,-1.5625 q -1.015625,0.234375 -2.5,1.5625 -0.46875,0.46875 -1.328125,1.09375 -0.15625,0.07813 -0.234375,0.15625 -0.234375,0.15625 0,0.390625 0.234375,0.15625 0.546875,0 z m 10.859375,-6.5625 q 0.15625,-0.15625 0.07813,-0.234375 -0.15625,-0.078125 -0.46875,0 -0.703125,0.15625 -1.71875,1.015625 0.703125,-0.15625 1.328125,0.078125 0.46875,-0.390625 0.78125,-0.859375 z M 14.09375,9.817709 q 0.390625,-0.234375 0.78125,-0.703125 -0.46875,-0.15625 -0.703125,-0.625 -0.15625,0.078125 -0.390625,0.3125 -0.46875,0.3125 -0.703125,0.46875 0.07813,0 0.15625,0.078125 0.625,0.15625 0.859375,0.46875 z" />
    </g>
    <g *ngSwitchCase="'A'" aria-label="士">
      <path
        d="m 11.161222,6.3311291 q -0.390625,-0.703125 0.3125,-0.9375 1.25,0.234375 2.109375,0.78125 0.78125,0.46875 0.46875,1.5625 -0.07813,0.703125 -0.07813,2.9687499 2.34375,-0.234375 3.125,-0.390625 0.703125,-0.234375 1.328125,-0.15625 2.34375,0.234375 2.109375,1.953125 -0.390625,0.78125 -2.03125,0.390625 -1.796875,-0.546875 -4.53125,0 -0.15625,2.578125 -0.3125,3.75 1.25,0.07813 0.859375,-0.3125 -0.07813,-0.15625 0.234375,-0.07813 0.3125,0.07813 0.546875,0.07813 1.40625,0.07813 1.875,0.703125 0.78125,0.546875 0.46875,1.484375 0,0.703125 -1.40625,0.3125 -3.90625,-0.859375 -7.0312505,1.015625 -0.46875,0.390625 -0.78125,-0.234375 -0.15625,-0.234375 -0.46875,-0.46875 -0.234375,-0.234375 -0.390625,-0.390625 -0.234375,-0.3125 -0.234375,-0.703125 0.078125,-0.3125 0.703125,-0.390625 -0.078125,0 0.078125,0 0.234375,0 0.703125,-0.07813 0.3125,-0.07813 0.46875,-0.07813 1.0937505,-0.3125 2.1093755,-0.46875 0.234375,-1.640625 0.15625,-3.671875 -2.5000005,0.546875 -3.7500005,1.171875 -0.859375,0.390625 -1.5625,0.46875 -0.46875,0.15625 -0.78125,-0.390625 -0.078125,-0.07813 -0.234375,-0.3125 -0.625,-0.703125 -0.703125,-1.328125 -0.15625,-0.390625 0,-0.46875 0.078125,-0.07813 0.625,0 0.9375,0.15625 2.34375,-0.234375 0.15625,0 0.546875,-0.07813 1.71875,-0.46875 3.5937505,-0.703125 0.390625,-4.6093749 -0.46875,-4.7656249 z" />
    </g>
    <g *ngSwitchCase="'a'" aria-label="士">
      <path
        d="m 11.161222,6.3311291 q -0.390625,-0.703125 0.3125,-0.9375 1.25,0.234375 2.109375,0.78125 0.78125,0.46875 0.46875,1.5625 -0.07813,0.703125 -0.07813,2.9687499 2.34375,-0.234375 3.125,-0.390625 0.703125,-0.234375 1.328125,-0.15625 2.34375,0.234375 2.109375,1.953125 -0.390625,0.78125 -2.03125,0.390625 -1.796875,-0.546875 -4.53125,0 -0.15625,2.578125 -0.3125,3.75 1.25,0.07813 0.859375,-0.3125 -0.07813,-0.15625 0.234375,-0.07813 0.3125,0.07813 0.546875,0.07813 1.40625,0.07813 1.875,0.703125 0.78125,0.546875 0.46875,1.484375 0,0.703125 -1.40625,0.3125 -3.90625,-0.859375 -7.0312505,1.015625 -0.46875,0.390625 -0.78125,-0.234375 -0.15625,-0.234375 -0.46875,-0.46875 -0.234375,-0.234375 -0.390625,-0.390625 -0.234375,-0.3125 -0.234375,-0.703125 0.078125,-0.3125 0.703125,-0.390625 -0.078125,0 0.078125,0 0.234375,0 0.703125,-0.07813 0.3125,-0.07813 0.46875,-0.07813 1.0937505,-0.3125 2.1093755,-0.46875 0.234375,-1.640625 0.15625,-3.671875 -2.5000005,0.546875 -3.7500005,1.171875 -0.859375,0.390625 -1.5625,0.46875 -0.46875,0.15625 -0.78125,-0.390625 -0.078125,-0.07813 -0.234375,-0.3125 -0.625,-0.703125 -0.703125,-1.328125 -0.15625,-0.390625 0,-0.46875 0.078125,-0.07813 0.625,0 0.9375,0.15625 2.34375,-0.234375 0.15625,0 0.546875,-0.07813 1.71875,-0.46875 3.5937505,-0.703125 0.390625,-4.6093749 -0.46875,-4.7656249 z" />
    </g>
    <g *ngSwitchCase="'r'" aria-label="车">
      <path
        d="m 11.333333,7.6426373 q -1.328125,0.234375 -3.1249996,1.40625 -1.484375,0.9375 -0.78125,1.5624997 0,0 0.15625,0.07813 0.15625,0 0.390625,0.234375 0.9375,-1.4843747 3.3593746,-2.3437497 z m 3.203125,4.9218747 q 0.46875,-1.40625 0.703125,-2.8124997 0.234375,-1.015625 -0.703125,-0.859375 -0.859375,0.078125 -1.796875,0.46875 0,0.46875 0,0.9374997 0.625,0 0.9375,0.234375 0.46875,0.46875 0,0.78125 -0.390625,0.234375 -0.625,0.625 0,0.07813 -0.15625,0.3125 -0.07813,0.234375 -0.15625,0.390625 0.625,0.07813 1.171875,0.3125 0.07813,-0.46875 0.3125,-0.3125 0.234375,0.15625 0.3125,-0.07813 z m -3.4375,-0.234375 q -0.546875,0 -1.4062496,-0.234375 -0.3125,-0.07813 -0.3125,-0.234375 0,-0.234375 0.3125,-0.390625 0.3124996,-0.234375 1.2499996,-0.703125 0.234375,-0.07813 0.3125,-0.15625 V 9.7520123 q -0.625,0.3906247 -1.5624996,0.3906247 -1.40625,0.3125 -1.015625,1.484375 0.390625,0.859375 0.390625,2.265625 0,0.15625 0.234375,0.07813 0.234375,-0.07813 0.625,-0.46875 0.1562496,-0.15625 0.5468746,-0.46875 0.15625,-0.15625 0.234375,-0.234375 0.3125,-0.15625 0.390625,-0.46875 z m 1.5625,4.21875 q 0,4.0625 -0.390625,4.765625 -0.07813,0.390625 -0.234375,0.390625 -0.15625,0.07813 -0.3125,-0.3125 -0.46875,-1.484375 -0.46875,-4.53125 -1.5624996,0.234375 -3.3593746,1.015625 -2.265625,0.9375 -3.046875,-0.546875 -0.078125,-0.3125 0.078125,-0.546875 0.15625,-0.07813 0.46875,0 0.46875,0.15625 1.25,-0.15625 1.875,-0.625 4.5312496,-1.25 0,-0.234375 0,-0.46875 -0.390625,0 -1.2499996,0.15625 0.5468746,-0.15625 -0.234375,0 -1.328125,0.3125 -1.640625,-1.484375 -0.15625,-1.015625 -0.9375,-1.71875 -1.09375,-0.9375 0.078125,-2.3437497 1.09375,-1.09375 2.8124996,-1.875 -0.5468746,-0.234375 -0.9374996,-0.546875 -0.3125,-0.234375 -0.3125,-0.390625 0.078125,-0.15625 0.390625,-0.234375 1.1718746,-0.234375 2.1874996,-0.78125 0,-1.015625 -0.546875,-1.640625 -0.234375,-0.234375 -0.15625,-0.390625 0.07813,-0.234375 0.46875,-0.3125 0.78125,-0.234375 1.71875,0.390625 0.46875,0.390625 0.234375,0.9375 -0.07813,0.234375 -0.07813,0.546875 0.78125,-0.390625 1.796875,0.234375 0.390625,0.234375 0.390625,0.546875 -0.07813,0.234375 -0.46875,0.390625 -0.234375,0.078125 -0.859375,0.390625 -0.625,0.234375 -0.9375,0.390625 -0.07813,0.46875 -0.07813,1.015625 0.9375,-0.3125 2.109375,-0.390625 1.71875,-0.15625 2.5,1.640625 0.234375,0.6249997 -0.234375,1.1718747 -0.703125,0.9375 -1.25,1.953125 -0.390625,0.9375 -1.5625,1.171875 -0.859375,0.07813 -1.71875,0.703125 0,0.390625 0,0.703125 1.484375,-0.234375 2.5,-0.234375 0.234375,0 0.625,-0.07813 0.46875,0 0.703125,-0.07813 2.421875,-0.390625 3.4375,1.015625 0.3125,0.46875 0.234375,0.703125 -0.07813,0.234375 -0.625,0.3125 -0.9375,0.15625 -2.34375,-0.3125 -1.71875,-0.46875 -4.53125,0.07813 z" />
    </g>
    <g *ngSwitchCase="'R'" aria-label="车">
      <path
        d="m 11.333333,7.6426373 q -1.328125,0.234375 -3.1249996,1.40625 -1.484375,0.9375 -0.78125,1.5624997 0,0 0.15625,0.07813 0.15625,0 0.390625,0.234375 0.9375,-1.4843747 3.3593746,-2.3437497 z m 3.203125,4.9218747 q 0.46875,-1.40625 0.703125,-2.8124997 0.234375,-1.015625 -0.703125,-0.859375 -0.859375,0.078125 -1.796875,0.46875 0,0.46875 0,0.9374997 0.625,0 0.9375,0.234375 0.46875,0.46875 0,0.78125 -0.390625,0.234375 -0.625,0.625 0,0.07813 -0.15625,0.3125 -0.07813,0.234375 -0.15625,0.390625 0.625,0.07813 1.171875,0.3125 0.07813,-0.46875 0.3125,-0.3125 0.234375,0.15625 0.3125,-0.07813 z m -3.4375,-0.234375 q -0.546875,0 -1.4062496,-0.234375 -0.3125,-0.07813 -0.3125,-0.234375 0,-0.234375 0.3125,-0.390625 0.3124996,-0.234375 1.2499996,-0.703125 0.234375,-0.07813 0.3125,-0.15625 V 9.7520123 q -0.625,0.3906247 -1.5624996,0.3906247 -1.40625,0.3125 -1.015625,1.484375 0.390625,0.859375 0.390625,2.265625 0,0.15625 0.234375,0.07813 0.234375,-0.07813 0.625,-0.46875 0.1562496,-0.15625 0.5468746,-0.46875 0.15625,-0.15625 0.234375,-0.234375 0.3125,-0.15625 0.390625,-0.46875 z m 1.5625,4.21875 q 0,4.0625 -0.390625,4.765625 -0.07813,0.390625 -0.234375,0.390625 -0.15625,0.07813 -0.3125,-0.3125 -0.46875,-1.484375 -0.46875,-4.53125 -1.5624996,0.234375 -3.3593746,1.015625 -2.265625,0.9375 -3.046875,-0.546875 -0.078125,-0.3125 0.078125,-0.546875 0.15625,-0.07813 0.46875,0 0.46875,0.15625 1.25,-0.15625 1.875,-0.625 4.5312496,-1.25 0,-0.234375 0,-0.46875 -0.390625,0 -1.2499996,0.15625 0.5468746,-0.15625 -0.234375,0 -1.328125,0.3125 -1.640625,-1.484375 -0.15625,-1.015625 -0.9375,-1.71875 -1.09375,-0.9375 0.078125,-2.3437497 1.09375,-1.09375 2.8124996,-1.875 -0.5468746,-0.234375 -0.9374996,-0.546875 -0.3125,-0.234375 -0.3125,-0.390625 0.078125,-0.15625 0.390625,-0.234375 1.1718746,-0.234375 2.1874996,-0.78125 0,-1.015625 -0.546875,-1.640625 -0.234375,-0.234375 -0.15625,-0.390625 0.07813,-0.234375 0.46875,-0.3125 0.78125,-0.234375 1.71875,0.390625 0.46875,0.390625 0.234375,0.9375 -0.07813,0.234375 -0.07813,0.546875 0.78125,-0.390625 1.796875,0.234375 0.390625,0.234375 0.390625,0.546875 -0.07813,0.234375 -0.46875,0.390625 -0.234375,0.078125 -0.859375,0.390625 -0.625,0.234375 -0.9375,0.390625 -0.07813,0.46875 -0.07813,1.015625 0.9375,-0.3125 2.109375,-0.390625 1.71875,-0.15625 2.5,1.640625 0.234375,0.6249997 -0.234375,1.1718747 -0.703125,0.9375 -1.25,1.953125 -0.390625,0.9375 -1.5625,1.171875 -0.859375,0.07813 -1.71875,0.703125 0,0.390625 0,0.703125 1.484375,-0.234375 2.5,-0.234375 0.234375,0 0.625,-0.07813 0.46875,0 0.703125,-0.07813 2.421875,-0.390625 3.4375,1.015625 0.3125,0.46875 0.234375,0.703125 -0.07813,0.234375 -0.625,0.3125 -0.9375,0.15625 -2.34375,-0.3125 -1.71875,-0.46875 -4.53125,0.07813 z" />
    </g>
    <g *ngSwitchCase="'n'" aria-label="马">
      <path
        d="m 11.988932,6.0145359 q 0,-0.234375 -0.234375,-0.703125 -1.7968746,-0.15625 -1.015625,-0.46875 3.046875,-1.71875 4.21875,-0.46875 0.625,0.546875 0.07813,0.78125 -1.171875,0.78125 -1.171875,1.484375 0.46875,0 0.78125,0.703125 0.3125,0.46875 -0.15625,0.78125 -0.9375,0.546875 -0.9375,1.484375 0.78125,-0.46875 1.5625,0.234375 0.625,0.4687501 0,0.8593751 -1.875,0.9375 -1.875,2.109375 2.265625,-0.625 3.984375,-0.625 1.5625,0 2.578125,1.25 0.546875,0.703125 0.15625,1.171875 -0.703125,1.015625 -1.171875,2.421875 -0.78125,2.734375 -1.875,3.75 -0.546875,0.703125 -0.9375,0.07813 -1.09375,-1.25 -2.03125,-1.71875 -0.3125,-0.234375 -0.9375,-1.015625 -0.07813,-0.15625 -0.15625,-0.234375 -0.3125,-0.3125 -0.234375,-0.3125 0.07813,-0.07813 0.46875,0.15625 0.9375,0.625 2.578125,0.78125 0.703125,0 0.9375,-0.390625 0.46875,-1.09375 1.015625,-3.359375 0.07813,-0.390625 0.07813,-0.546875 0.234375,-1.015625 -0.859375,-1.09375 -1.40625,-0.234375 -3.671875,0.625 -0.15625,0.46875 -0.234375,1.171875 -0.07813,0.234375 -0.07813,0.3125 0.390625,-0.234375 0.703125,-0.234375 -0.234375,-0.234375 -0.234375,-0.3125 0,-0.07813 0.234375,0 0.546875,0.3125 1.328125,0.390625 1.015625,0.234375 1.5625,0.9375 0.15625,0.390625 -0.15625,0.46875 -0.859375,0 -1.40625,-0.234375 -0.703125,-0.46875 -1.328125,-0.234375 -1.25,0.703125 -1.796875,1.328125 -0.07813,0.07813 -0.234375,0.15625 -0.390625,0.390625 -0.78125,0.390625 -0.703125,-0.07813 -1.7968746,-0.9375 -0.3125,-0.234375 -0.46875,-0.07813 -1.25,0.78125 -1.5625,1.5625 -0.15625,0.390625 -0.625,0.15625 -1.09375,-0.625 -1.40625,-1.71875 0.078125,-0.3125 0.390625,-0.234375 0.625,0.625 2.578125,-0.234375 1.015625,-0.390625 1.640625,0 0.7031246,0.234375 1.5624996,-0.15625 -0.46875,-0.234375 -0.546875,-0.390625 0,-0.15625 0.390625,-0.15625 0.78125,0.234375 0.859375,-1.40625 -1.015625,0.46875 -1.71875,-0.390625 -0.3906246,-0.390625 0.15625,-0.625 0.3125,0 1.484375,-0.9375 0.15625,-0.07813 0.234375,-0.859375 -1.09375,0.78125 -1.484375,-0.234375 -0.3125,-0.625 0.234375,-0.859375 0.15625,-0.15625 0.625,-0.4687501 0.390625,-0.3125 0.546875,-0.390625 0.234375,-0.15625 0.234375,-0.859375 -0.234375,0.078125 -0.46875,0.15625 -0.15625,0.078125 -0.234375,0.078125 -0.703125,0.234375 -0.9375,-0.78125 -0.15625,-0.78125 0.390625,-0.9375 0.625,-0.234375 1.171875,-1.171875 z M 8.0826824,5.4676609 q -0.078125,-0.234375 -0.078125,-0.3125 0,-0.078125 0.234375,0.078125 0.625,0.234375 1.015625,0.625 0.234375,0.15625 0.703125,-0.46875 0.3906246,-0.3125 0.3906246,-0.234375 0.07813,0.078125 -0.07813,0.546875 -0.234375,0.46875 -0.4687496,1.71875 0.078125,-0.078125 0,0.234375 -0.546875,5.3125001 -0.390625,6.7187501 -0.15625,0.859375 -0.546875,0.546875 -1.25,-1.640625 -0.859375,-3.515625 0.78125,-4.6875001 0.078125,-5.9375001 z" />
    </g>
    <g *ngSwitchCase="'N'" aria-label="马">
      <path
        d="m 11.988932,6.0145359 q 0,-0.234375 -0.234375,-0.703125 -1.7968746,-0.15625 -1.015625,-0.46875 3.046875,-1.71875 4.21875,-0.46875 0.625,0.546875 0.07813,0.78125 -1.171875,0.78125 -1.171875,1.484375 0.46875,0 0.78125,0.703125 0.3125,0.46875 -0.15625,0.78125 -0.9375,0.546875 -0.9375,1.484375 0.78125,-0.46875 1.5625,0.234375 0.625,0.4687501 0,0.8593751 -1.875,0.9375 -1.875,2.109375 2.265625,-0.625 3.984375,-0.625 1.5625,0 2.578125,1.25 0.546875,0.703125 0.15625,1.171875 -0.703125,1.015625 -1.171875,2.421875 -0.78125,2.734375 -1.875,3.75 -0.546875,0.703125 -0.9375,0.07813 -1.09375,-1.25 -2.03125,-1.71875 -0.3125,-0.234375 -0.9375,-1.015625 -0.07813,-0.15625 -0.15625,-0.234375 -0.3125,-0.3125 -0.234375,-0.3125 0.07813,-0.07813 0.46875,0.15625 0.9375,0.625 2.578125,0.78125 0.703125,0 0.9375,-0.390625 0.46875,-1.09375 1.015625,-3.359375 0.07813,-0.390625 0.07813,-0.546875 0.234375,-1.015625 -0.859375,-1.09375 -1.40625,-0.234375 -3.671875,0.625 -0.15625,0.46875 -0.234375,1.171875 -0.07813,0.234375 -0.07813,0.3125 0.390625,-0.234375 0.703125,-0.234375 -0.234375,-0.234375 -0.234375,-0.3125 0,-0.07813 0.234375,0 0.546875,0.3125 1.328125,0.390625 1.015625,0.234375 1.5625,0.9375 0.15625,0.390625 -0.15625,0.46875 -0.859375,0 -1.40625,-0.234375 -0.703125,-0.46875 -1.328125,-0.234375 -1.25,0.703125 -1.796875,1.328125 -0.07813,0.07813 -0.234375,0.15625 -0.390625,0.390625 -0.78125,0.390625 -0.703125,-0.07813 -1.7968746,-0.9375 -0.3125,-0.234375 -0.46875,-0.07813 -1.25,0.78125 -1.5625,1.5625 -0.15625,0.390625 -0.625,0.15625 -1.09375,-0.625 -1.40625,-1.71875 0.078125,-0.3125 0.390625,-0.234375 0.625,0.625 2.578125,-0.234375 1.015625,-0.390625 1.640625,0 0.7031246,0.234375 1.5624996,-0.15625 -0.46875,-0.234375 -0.546875,-0.390625 0,-0.15625 0.390625,-0.15625 0.78125,0.234375 0.859375,-1.40625 -1.015625,0.46875 -1.71875,-0.390625 -0.3906246,-0.390625 0.15625,-0.625 0.3125,0 1.484375,-0.9375 0.15625,-0.07813 0.234375,-0.859375 -1.09375,0.78125 -1.484375,-0.234375 -0.3125,-0.625 0.234375,-0.859375 0.15625,-0.15625 0.625,-0.4687501 0.390625,-0.3125 0.546875,-0.390625 0.234375,-0.15625 0.234375,-0.859375 -0.234375,0.078125 -0.46875,0.15625 -0.15625,0.078125 -0.234375,0.078125 -0.703125,0.234375 -0.9375,-0.78125 -0.15625,-0.78125 0.390625,-0.9375 0.625,-0.234375 1.171875,-1.171875 z M 8.0826824,5.4676609 q -0.078125,-0.234375 -0.078125,-0.3125 0,-0.078125 0.234375,0.078125 0.625,0.234375 1.015625,0.625 0.234375,0.15625 0.703125,-0.46875 0.3906246,-0.3125 0.3906246,-0.234375 0.07813,0.078125 -0.07813,0.546875 -0.234375,0.46875 -0.4687496,1.71875 0.078125,-0.078125 0,0.234375 -0.546875,5.3125001 -0.390625,6.7187501 -0.15625,0.859375 -0.546875,0.546875 -1.25,-1.640625 -0.859375,-3.515625 0.78125,-4.6875001 0.078125,-5.9375001 z" />
    </g>
    <g *ngSwitchCase="'c'" aria-label="炮">
      <path
        d="m 7.19376,5.703125 q 0.3125,-0.625 1.09375,-0.234375 0.78125,0.390625 1.171875,1.25 0.234375,0.625 0.078125,1.09375 -0.234375,0.390625 -0.3125,1.09375 0.9375,-0.15625 1.25,0.46875 0.234375,0.390625 0.546875,0.859375 0.234375,0.390625 -0.234375,0.78125 -0.703125,0.46875 -1.171875,0.46875 Q 9.22501,11.640625 8.75626,10.9375 8.60001,12.109375 8.44376,14.140625 8.365635,14.53125 8.365635,14.6875 q 1.171875,-0.15625 2.03125,0.546875 0.46875,0.546875 0.390625,1.40625 -0.234375,0.625 -0.703125,0.390625 -0.46875,-0.234375 -0.9375,-0.703125 -0.078125,0 -0.078125,-0.07813 Q 8.521885,15.703125 8.209385,15.78125 7.81876,17.1875 7.03751,18.359375 q -0.9375,1.09375 -2.03125,0.9375 -0.234375,-0.07813 -0.234375,-0.15625 0,-0.15625 0.15625,-0.15625 Q 5.94376,18.4375 6.72501,16.25 q 0.546875,-1.640625 0.9375,-4.765625 -0.078125,0.15625 -0.3125,0.46875 -0.859375,1.328125 -1.25,2.1875 -0.3125,0.703125 -0.703125,0.9375 -0.3125,0.15625 -0.546875,-0.15625 Q 4.615635,14.53125 4.38126,13.90625 3.990635,12.96875 4.53751,12.8125 q 0.234375,0 0.78125,-1.40625 Q 5.63126,10.46875 5.00626,10 4.85001,9.921875 4.928135,9.921875 5.00626,9.84375 5.240635,9.84375 q 1.09375,0.078125 1.484375,1.171875 0,0 0,0.07813 0.078125,0.15625 0.234375,0 0.46875,-0.625 0.78125,-0.9375 0,-0.390625 0.078125,-1.71875 Q 7.896885,7.34375 7.896885,6.71875 7.81876,5.703125 7.35001,5.9375 7.19376,6.09375 7.115635,6.015625 q 0,-0.078125 0.078125,-0.3125 z M 9.146885,9.375 Q 9.06876,9.53125 8.990635,10 8.91251,10.234375 8.91251,10.3125 q 0.46875,0.390625 0.703125,-0.234375 0.078125,-0.546875 0,-0.703125 -0.15625,-0.15625 -0.46875,0 z M 13.13126,5.703125 Q 12.896885,5.3125 12.896885,5.15625 q 0.07813,-0.15625 0.390625,0 1.09375,0.234375 2.1875,1.171875 0.546875,0.46875 0.07813,0.78125 -0.46875,0.3125 -0.9375,1.09375 0.859375,-0.15625 1.25,-0.390625 0.859375,-0.390625 1.5625,0 0.625,0.3125 1.5625,1.25 0.46875,0.46875 0,1.015625 -0.3125,0.3125 -0.78125,1.484375 0,0.234375 -0.07813,0.3125 -0.78125,2.109375 -1.875,3.125 -0.234375,0.3125 -0.390625,0.3125 -0.15625,0 -0.234375,-0.3125 0,-0.07813 -0.07813,-0.3125 -0.07813,-0.3125 -0.15625,-0.625 -0.78125,0.07813 -1.5625,0.546875 -0.46875,0.3125 -1.09375,0.15625 -0.390625,1.171875 -0.46875,1.875 -0.15625,1.25 0.546875,1.640625 2.5,0.78125 5.078125,0 1.875,-0.625 1.875,-2.578125 0.07813,-0.546875 0.15625,-0.07813 0.15625,0.859375 0.546875,2.109375 0.07813,0.234375 0.15625,0.390625 0.390625,0.625 -0.234375,1.09375 -1.328125,0.703125 -4.140625,0.703125 -2.890625,0 -4.140625,-0.625 -1.09375,-0.859375 -0.9375,-2.34375 0.07813,-0.9375 0.390625,-2.96875 0.07813,-0.625 0.15625,-0.9375 0.07813,-0.703125 -0.3125,-0.625 -0.3125,-0.15625 -0.07813,-0.46875 0.390625,-0.234375 0.78125,-0.234375 0.15625,-0.3125 0.625,-0.546875 0.859375,-0.3125 1.40625,-0.625 0.78125,-0.390625 1.875,0.546875 0.390625,0.390625 0,0.859375 -0.3125,0.3125 -0.703125,0.859375 -0.234375,0.390625 0,0.390625 0.546875,0.15625 0.625,-0.07813 0.859375,-1.09375 1.328125,-3.671875 0,-0.703125 -0.78125,-0.625 -2.578125,0.625 -3.984375,1.5625 -0.46875,0.390625 -0.625,-0.3125 -0.07813,-1.484375 0.390625,-1.71875 0.546875,-0.3125 1.171875,-1.5625 0.3125,-0.390625 -0.3125,-1.09375 z m 0.625,6.640625 Q 13.28751,12.5 12.97501,12.5 q 0.15625,0.3125 0,0.78125 0.390625,-0.07813 0.703125,-0.46875 0.07813,-0.07813 0.15625,-0.15625 0.15625,-0.15625 0.07813,-0.234375 0,-0.15625 -0.15625,-0.07813 z" />
    </g>
    <g *ngSwitchCase="'C'" aria-label="炮">
      <path
        d="m 7.19376,5.703125 q 0.3125,-0.625 1.09375,-0.234375 0.78125,0.390625 1.171875,1.25 0.234375,0.625 0.078125,1.09375 -0.234375,0.390625 -0.3125,1.09375 0.9375,-0.15625 1.25,0.46875 0.234375,0.390625 0.546875,0.859375 0.234375,0.390625 -0.234375,0.78125 -0.703125,0.46875 -1.171875,0.46875 Q 9.22501,11.640625 8.75626,10.9375 8.60001,12.109375 8.44376,14.140625 8.365635,14.53125 8.365635,14.6875 q 1.171875,-0.15625 2.03125,0.546875 0.46875,0.546875 0.390625,1.40625 -0.234375,0.625 -0.703125,0.390625 -0.46875,-0.234375 -0.9375,-0.703125 -0.078125,0 -0.078125,-0.07813 Q 8.521885,15.703125 8.209385,15.78125 7.81876,17.1875 7.03751,18.359375 q -0.9375,1.09375 -2.03125,0.9375 -0.234375,-0.07813 -0.234375,-0.15625 0,-0.15625 0.15625,-0.15625 Q 5.94376,18.4375 6.72501,16.25 q 0.546875,-1.640625 0.9375,-4.765625 -0.078125,0.15625 -0.3125,0.46875 -0.859375,1.328125 -1.25,2.1875 -0.3125,0.703125 -0.703125,0.9375 -0.3125,0.15625 -0.546875,-0.15625 Q 4.615635,14.53125 4.38126,13.90625 3.990635,12.96875 4.53751,12.8125 q 0.234375,0 0.78125,-1.40625 Q 5.63126,10.46875 5.00626,10 4.85001,9.921875 4.928135,9.921875 5.00626,9.84375 5.240635,9.84375 q 1.09375,0.078125 1.484375,1.171875 0,0 0,0.07813 0.078125,0.15625 0.234375,0 0.46875,-0.625 0.78125,-0.9375 0,-0.390625 0.078125,-1.71875 Q 7.896885,7.34375 7.896885,6.71875 7.81876,5.703125 7.35001,5.9375 7.19376,6.09375 7.115635,6.015625 q 0,-0.078125 0.078125,-0.3125 z M 9.146885,9.375 Q 9.06876,9.53125 8.990635,10 8.91251,10.234375 8.91251,10.3125 q 0.46875,0.390625 0.703125,-0.234375 0.078125,-0.546875 0,-0.703125 -0.15625,-0.15625 -0.46875,0 z M 13.13126,5.703125 Q 12.896885,5.3125 12.896885,5.15625 q 0.07813,-0.15625 0.390625,0 1.09375,0.234375 2.1875,1.171875 0.546875,0.46875 0.07813,0.78125 -0.46875,0.3125 -0.9375,1.09375 0.859375,-0.15625 1.25,-0.390625 0.859375,-0.390625 1.5625,0 0.625,0.3125 1.5625,1.25 0.46875,0.46875 0,1.015625 -0.3125,0.3125 -0.78125,1.484375 0,0.234375 -0.07813,0.3125 -0.78125,2.109375 -1.875,3.125 -0.234375,0.3125 -0.390625,0.3125 -0.15625,0 -0.234375,-0.3125 0,-0.07813 -0.07813,-0.3125 -0.07813,-0.3125 -0.15625,-0.625 -0.78125,0.07813 -1.5625,0.546875 -0.46875,0.3125 -1.09375,0.15625 -0.390625,1.171875 -0.46875,1.875 -0.15625,1.25 0.546875,1.640625 2.5,0.78125 5.078125,0 1.875,-0.625 1.875,-2.578125 0.07813,-0.546875 0.15625,-0.07813 0.15625,0.859375 0.546875,2.109375 0.07813,0.234375 0.15625,0.390625 0.390625,0.625 -0.234375,1.09375 -1.328125,0.703125 -4.140625,0.703125 -2.890625,0 -4.140625,-0.625 -1.09375,-0.859375 -0.9375,-2.34375 0.07813,-0.9375 0.390625,-2.96875 0.07813,-0.625 0.15625,-0.9375 0.07813,-0.703125 -0.3125,-0.625 -0.3125,-0.15625 -0.07813,-0.46875 0.390625,-0.234375 0.78125,-0.234375 0.15625,-0.3125 0.625,-0.546875 0.859375,-0.3125 1.40625,-0.625 0.78125,-0.390625 1.875,0.546875 0.390625,0.390625 0,0.859375 -0.3125,0.3125 -0.703125,0.859375 -0.234375,0.390625 0,0.390625 0.546875,0.15625 0.625,-0.07813 0.859375,-1.09375 1.328125,-3.671875 0,-0.703125 -0.78125,-0.625 -2.578125,0.625 -3.984375,1.5625 -0.46875,0.390625 -0.625,-0.3125 -0.07813,-1.484375 0.390625,-1.71875 0.546875,-0.3125 1.171875,-1.5625 0.3125,-0.390625 -0.3125,-1.09375 z m 0.625,6.640625 Q 13.28751,12.5 12.97501,12.5 q 0.15625,0.3125 0,0.78125 0.390625,-0.07813 0.703125,-0.46875 0.07813,-0.07813 0.15625,-0.15625 0.15625,-0.15625 0.07813,-0.234375 0,-0.15625 -0.15625,-0.07813 z" />
    </g>

    <g *ngSwitchCase="'p'" aria-label="卒">
      <path
        d="m 13.910496,5.6328125 q -0.234375,0.15625 -0.234375,0.234375 0,0.078125 0.234375,0 0.546875,-0.15625 1.171875,-0.390625 0.78125,-0.390625 1.5625,0.625 0.3125,0.46875 -0.07813,0.703125 -0.46875,0.234375 -1.40625,0.3125 -1.015625,0.15625 -2.734375,0.9375 -1.09375,0.46875 -1.5625,1.875 -0.234375,0.7031255 0.15625,0.9375005 0.15625,0.15625 0.546875,-0.3125 0,-0.07813 0.07813,-0.15625 0.15625,-0.234375 0.390625,-0.6250005 1.328125,-2.34375 2.34375,-2.265625 1.40625,0.234375 1.25,2.421875 1.171875,0.078126 1.484375,0.7031255 0.3125,0.3125 -0.07813,0.78125 -1.328125,1.40625 -3.59375,2.1875 0.07813,0.07813 0,0.234375 0,0.07813 0,0.15625 0.07813,0 0.234375,0 1.40625,-0.234375 2.265625,-0.3125 0.78125,0 1.25,-0.15625 0.07813,0 0.390625,0 1.171875,-0.07813 1.640625,0.07813 0.9375,0.3125 1.09375,1.171875 0.234375,0.9375 -1.328125,0.625 -3.28125,-0.703125 -5.46875,-0.3125 -0.15625,3.749999 -0.390625,5.859374 0,0.15625 -0.07813,0.390625 -0.07813,0.3125 -0.07813,0.546875 0,0.3125 -0.234375,0.390625 -0.234375,0 -0.3125,-0.3125 -0.625,-1.953125 -0.625,-6.640624 -2.5,0.781249 -5,1.640624 -1.40625,0.625 -1.796875,0.3125 -0.46875,-0.234375 -0.3125,-1.015625 0,0.07813 0,-0.07813 0.15625,-0.468749 0.46875,-0.312499 0.234375,0.156249 2.03125,-0.625 1.328125,-0.703125 4.375,-1.71875 -0.07813,-0.234375 -0.3125,-0.3125 -0.546875,-0.15625 -0.46875,-0.46875 -0.546875,-1.09375 -1.484375,0 -0.546875,0.625 -1.09375,0.9375 -0.3125,0.15625 -0.390625,0.07813 -0.078125,-0.07813 -0.078125,-0.390625 0,-0.15625 0.078125,-0.390625 0,-0.625 0.15625,-1.015625 0.15625,-0.3125 0.46875,-0.546875 0.234375,-0.07813 0.546875,-0.546875 -0.078125,0.07813 0.078125,-0.15625 0.546875,-0.7812505 1.875,-2.4218755 0.234375,-0.3125 -0.07813,-0.078125 -2.96875,1.640625 -3.90625,0.625 -0.625,-0.78125 -0.234375,-1.484375 0.15625,-0.234375 0.3125,-0.234375 0.15625,-0.078125 0.15625,0.15625 0,0.234375 0.546875,0.234375 1.328125,0 2.421875,-0.46875 0.3125,-0.15625 -0.07813,-0.15625 -0.546875,0.078125 -1.796875,0 -0.46875,0 -0.078125,-0.15625 2.5,-0.3125 3.59375,-1.640625 0.390625,-0.3125 0.07813,-0.625 -0.234375,-0.15625 -0.46875,-0.546875 -0.3125,-0.625 -0.625,-0.9375 -0.234375,-0.3125 0.390625,-0.234375 2.109375,0 2.96875,0.859375 0.859375,1.015625 -0.234375,2.03125 z m 0.15625,2.34375 q -0.78125,-0.15625 -1.484375,1.796875 -0.07813,0.3125005 -0.234375,1.1718755 -0.234375,0.78125 -0.3125,1.171875 0.07813,0 0.15625,0 0.15625,0.07813 0.15625,0.07813 -0.07813,-0.390625 0.625,-1.25 0.78125,-1.0937505 1.09375,-1.7968755 0.390625,-0.859375 0,-1.171875 z m 0.703125,3.3593755 q -0.546875,-0.15625 -1.171875,0.625 -0.390625,0.546875 -0.625,0.546875 0.07813,0 0.234375,0.234375 0.07813,0.07813 0.07813,0.07813 0.703125,-0.390625 1.328125,-0.859375 0.546875,-0.390625 0.15625,-0.625 z m -2.96875,2.65625 q -1.40625,0.3125 -3.359375,0.9375 -0.234375,0.15625 -0.3125,0.15625 -0.15625,0.07813 -0.234375,0.15625 0,0.07813 0.15625,0.07813 0.546875,-0.07813 3.75,-1.015625 0,-0.15625 0,-0.3125 z" />
    </g>
    <g *ngSwitchCase="'P'" aria-label="兵">
      <path
        d="m 12.214543,4.1967773 q 2.03125,0.234375 2.421875,1.09375 0.46875,0.78125 0,1.171875 -1.484375,0.859375 -2.421875,1.09375 -1.25,0.3125 -2.1875,0.859375 1.09375,0.625 1.25,1.6406247 1.328125,-0.6249997 2.109375,-1.0937497 0.78125,-1.09375 2.1875,-0.390625 1.40625,0.859375 0.9375,1.8749997 -0.859375,2.03125 -2.109375,3.4375 4.921875,-0.546875 6.09375,0.9375 0.15625,0.546875 -0.703125,0.859375 -1.875,-0.390625 -3.28125,0.07813 -0.390625,0.07813 -2.109375,0.3125 -0.625,0.07813 -0.07813,-0.15625 0.390625,-0.07813 1.171875,-0.625 -0.07813,0 0.07813,-0.07813 -0.15625,0 -0.546875,0.07813 -1.71875,0.15625 -2.890625,0.390625 -2.1874997,0.3125 -3.9843747,0.859375 -1.875,0.703125 -2.734375,0.78125 -0.546875,0 -0.546875,-0.3125 0,0 -0.078125,-0.15625 0,-0.07813 -0.3125,-0.546875 0,-0.859375 1.328125,-0.78125 0.15625,0.07813 0.46875,0 1.484375,-0.390625 3.046875,-0.859375 -0.78125,-1.71875 -0.390625,-2.109375 0.390625,-0.546875 0.546875,-2.1875 0,-0.5468747 -0.3125,-0.7031247 -0.625,-0.078125 -0.703125,-1.40625 0,-0.703125 1.25,-1.328125 1.4062497,-0.625 2.4218747,-1.640625 0.625,-0.390625 0,-0.859375 -0.15625,-0.078125 -0.15625,-0.234375 0.07813,-0.078125 0.234375,0 z m 1.71875,6.4843747 q -0.234375,0.15625 -0.9375,0.546875 -1.171875,0.625 -1.640625,1.015625 -0.46875,0.390625 -0.546875,1.875 0,0.3125 0.46875,0 2.5,-2.03125 2.65625,-3.4375 z m 3.75,7.578125 q 0.390625,1.015625 -0.46875,2.03125 -0.234375,0.390625 -0.46875,0.390625 -0.234375,0 -0.390625,-0.390625 -0.625,-1.09375 -1.640625,-1.640625 -0.234375,-0.234375 -0.234375,-0.3125 0,-0.07813 0.3125,0 1.015625,0.234375 0.859375,-0.3125 -0.15625,-0.78125 -1.40625,-0.859375 -0.234375,0 -0.234375,-0.07813 0,-0.15625 0.234375,-0.15625 2.734375,-0.390625 3.4375,1.328125 z M 8.6207933,17.243652 q 0.15625,-0.234375 0.3125,-0.234375 0.15625,0.07813 0.078125,0.3125 -0.15625,0.78125 0.234375,0.859375 0.3125,-0.07813 0.8593747,-0.3125 0.859375,-0.3125 1.640625,-0.546875 0.546875,-0.234375 0.07813,0.15625 -2.5781247,1.40625 -2.8124997,2.96875 -0.546875,0.703125 -1.171875,0.15625 -0.859375,-1.796875 -0.234375,-2.1875 0.234375,-0.07813 1.015625,-1.171875 z" />
    </g>
    <g *ngSwitchCase="'K'" aria-label="帅">
      <path
        d="m 15.268195,3.046875 q 1.40625,0 1.40625,1.25 0,1.25 -0.07813,2.34375 1.171875,-0.78125 2.03125,-0.078125 1.328125,0.546875 1.09375,1.953125 0,1.25 0,2.34375 0.07813,3.75 -0.859375,4.765625 -0.390625,0.625 -0.703125,0.234375 -0.3125,-0.3125 -0.625,-0.9375 -0.07813,-0.15625 -0.234375,-0.46875 -0.390625,-0.78125 -0.625,-1.015625 0.07813,3.984375 -0.07813,5.234375 -0.07813,1.171875 -0.625,2.890625 -0.15625,0.390625 -0.3125,0.390625 Q 15.50257,21.875 15.424445,21.40625 15.03382,18.046875 15.03382,14.140625 q 0,-3.046875 0,-4.609375 -1.09375,0.546875 -0.9375,1.5625 0,1.71875 -0.703125,4.0625 -0.07813,0.3125 -0.15625,0.3125 -0.15625,0.07813 -0.3125,-0.234375 -0.859375,-1.171875 -0.546875,-2.34375 0.3125,-0.859375 0.234375,-2.8125 0,-1.484375 -0.546875,-1.484375 -0.3125,-0.15625 0,-0.46875 1.328125,-0.3125 1.71875,0.3125 0.234375,0.234375 0.3125,0.15625 0.15625,-0.15625 0.46875,-0.46875 0.3125,-0.3125 0.390625,-0.46875 0.3125,-1.71875 0.07813,-2.8125 0,-0.46875 -0.15625,-0.390625 -0.15625,0.15625 -0.234375,0.703125 -0.07813,0.46875 -0.15625,-0.078125 0,-0.234375 -0.07813,-0.625 Q 14.33069,4.21875 14.33069,4.0625 q 0,-1.015625 0.9375,-1.015625 z m 1.328125,5.625 q -0.07813,1.171875 0,3.125 0.78125,0.78125 1.09375,0.859375 0.234375,0.07813 0.3125,-0.546875 Q 18.15882,10.46875 18.0807,9.0625 18.00257,8.046875 17.29945,8.203125 16.98695,8.28125 16.596325,8.671875 Z M 7.6900699,4.21875 q -0.15625,-0.078125 -0.078125,-0.15625 0,-0.078125 0.15625,-0.078125 Q 8.4713199,3.90625 10.268195,5.390625 10.65882,5.859375 10.03382,6.25 9.2525699,6.328125 6.4400699,8.515625 q 0.46875,1.875 0.234375,2.734375 0.078125,-0.07813 0.3125,-0.15625 0.859375,-0.390625 1.953125,-0.625 0.15625,0 0.390625,-0.46875 0,-0.15625 0.078125,-0.234375 0.15625,-0.234375 -0.078125,-0.15625 -0.859375,0.3125 -2.421875,-0.703125 -0.15625,-0.078125 -0.078125,-0.15625 0,0 0.15625,-0.078125 0.3125,-0.15625 0.859375,-0.3125 0.9375,-0.46875 1.40625,-0.546875 0.15625,-0.078125 0.3125,-0.15625 0.078125,-0.078125 0.15625,-0.078125 Q 10.111945,7.34375 10.50257,7.5 q 0.234375,0.15625 0.546875,0.46875 0.234375,0.234375 0.46875,0.390625 0.234375,0.234375 0,0.390625 -0.234375,0.234375 -0.3125,0.46875 -0.07813,0.3125 -0.3125,0.9375 -0.07813,0.234375 -0.15625,0.3125 0,0 0.07813,0.07813 0.3125,0.15625 0.3125,0.390625 0,0.390625 -0.546875,0.703125 -0.234375,0.07813 -0.6250001,0.234375 -1.484375,0.390625 -2.890625,1.015625 -0.3125,0.07813 -0.078125,-0.15625 0.625,-0.390625 0.3125,-0.390625 -0.078125,0 -0.46875,-0.07813 0.234375,0.07813 -0.234375,-0.07813 -0.15625,0.78125 -0.15625,1.09375 0.625,0.234375 1.015625,0 0.9375,-0.3125 1.640625,-0.546875 1.1718751,-0.46875 2.4218751,0.46875 0.546875,0.390625 0.07813,0.859375 -0.390625,0.390625 -0.9375,1.328125 0,-0.07813 -0.07813,0.07813 0.07813,0.07813 0.234375,0.15625 0.15625,0.15625 0.234375,0.3125 0.07813,0.46875 -0.390625,0.78125 -3.4375001,-0.07813 -3.9062501,0.390625 0,0.390625 0,0.703125 0,0.46875 -0.234375,0.546875 -0.3125,0 -0.46875,-0.390625 Q 4.9556949,15 5.3463199,12.890625 q 0.3125,-1.5625 0.3125,-4.53125 0.078125,-1.015625 0.625,-1.640625 0.859375,-0.46875 1.640625,-1.25 0.546875,-0.703125 -0.234375,-1.25 z m 1.71875,9.84375 q -1.5625,0.546875 -2.890625,0.78125 0,0.15625 0.078125,0.46875 0,0.390625 0,0.546875 1.171875,-0.234375 2.109375,-0.46875 0.390625,-0.15625 0.859375,-1.015625 0.078125,-0.15625 0.078125,-0.3125 -0.078125,-0.07813 -0.234375,0 z" />
    </g>
    <g *ngSwitchCase="'B'" aria-label="相">
      <path
        d="m 10.737305,4.5234375 q 0.9375,0.078125 1.640625,0.703125 0.546875,0.390625 0.15625,1.328125 -0.3125,0.703125 -0.46875,1.25 1.40625,0.3125 1.09375,0.859375 0,0.546875 -0.625,0.78125 -0.78125,0.3125 -1.015625,1.4062505 -0.15625,0.546875 0.07813,1.09375 0.07813,0.234375 0.390625,-0.07813 1.09375,-0.9375 1.71875,-2.1875005 0,-0.078125 0.07813,-0.15625 0.15625,-0.234375 0.234375,-0.234375 0,-0.234375 -0.07813,-0.390625 -0.07813,-0.3125 0.15625,-0.3125 0.3125,0 0.546875,0.3125 0.3125,-1.015625 2.03125,-1.875 1.171875,-0.625 2.65625,0.625 1.171875,0.703125 0.78125,1.640625 -0.07813,0.7812505 0,2.4218755 0,0.625 0,1.875 0.07813,2.34375 0,3.281249 0.07813,1.40625 -0.859375,2.1875 -0.390625,0.390625 -0.625,0.07813 -0.703125,-1.5625 -1.171875,-1.796875 -1.5625,0.07813 -2.421875,0.859375 -0.3125,0.234375 -0.703125,0 -0.703125,-0.546875 -0.9375,-2.343749 -0.3125,-2.734375 0.234375,-4.609375 -0.859375,1.171875 -2.03125,2.5 -0.46875,0.546875 -0.546875,1.328125 -0.234375,1.249999 0.07813,4.374999 0,0.546875 -0.07813,0.9375 -0.07813,0.3125 -0.46875,0 -0.9375003,-1.015625 -0.9375003,-2.8125 0,-0.703125 0.078125,-1.484375 -0.9375,1.5625 -1.875,1.484375 -0.390625,0.15625 -0.46875,-0.390625 -0.078125,-0.390625 -0.078125,-0.78125 0,-0.546874 -0.234375,-0.781249 -0.078125,-0.3125 0.15625,-0.46875 1.171875,-0.546875 1.875,-1.328125 0.9375003,-1.09375 0.78125,-2.65625 -0.859375,0.625 -1.171875,1.09375 -0.859375,1.09375 -1.875,0.625 -0.9375,-0.390625 -1.796875,-1.796875 -0.390625,-0.703125 -0.15625,-0.9375 0.3125,-0.2343755 0.546875,0 0.3125,0.46875 1.09375,-0.07813 2.65625,-1.4062505 3.7500003,-2.1093755 0.234375,-1.640625 0.15625,-2.421875 -0.07813,-0.3125 -0.15625,-0.390625 -0.15625,0 -0.15625,0.3125 -0.1562503,0.3125 -0.1562503,0 -0.15625,-1.25 0.7812503,-0.9375 z m 6.484375,3.671875 q -0.07813,0 -0.15625,0.078125 -0.3125,0.15625 -1.09375,0.46875 -0.15625,0.078125 -0.46875,0.15625 -0.234375,0.15625 -0.3125,0.15625 -0.3125,0.3125 -0.07813,0.703125 0.07813,0.15625 0.15625,0.3906255 0.07813,0.07813 0.07813,0.15625 0.3125,-0.15625 0.625,-0.3125005 0.3125,-0.3125 0.859375,-0.15625 0.390625,0 1.171875,0.3125005 0.46875,0.234375 0.07813,0.703125 -0.3125,0.390625 -1.5625,1.484375 -0.15625,0.15625 -0.07813,0.3125 0.07813,0.15625 0.234375,0.07813 0.234375,-0.15625 0.546875,0 0.78125,0.46875 0.9375,0.625 0.390625,0.3125 0,0.546875 -2.1875,1.640625 -3.4375,1.953125 -0.07813,0.781249 0.390625,0.546874 1.09375,-0.3125 1.40625,-0.390625 0.859375,-0.234374 1.484375,0.234375 0.15625,0.15625 0.3125,0.07813 0.07813,-0.07813 0.07813,-0.390624 0.234375,-4.6875 -0.07813,-7.1093755 -0.3125,-0.9375 -1.09375,-0.625 z m -2.03125,3.3593755 q -0.3125,0.546875 -0.46875,1.484375 0,0.07813 0,0.07813 0.390625,-0.07813 0.46875,-0.390625 0,-0.07813 0.15625,-0.234375 0.15625,-0.234375 0.234375,-0.390625 0.234375,-0.234375 -0.07813,-0.3125 -0.234375,-0.15625 -0.3125,-0.234375 z m -0.546875,2.8125 q 0,1.015625 0.07813,1.25 0.15625,-0.15625 0.3125,-0.390625 0.234375,-0.234375 0.3125,-0.3125 0.15625,-0.15625 0.07813,-0.15625 0,-0.07813 -0.15625,-0.07813 -0.234375,-0.07813 -0.625,-0.3125 z" />
    </g>
  </g>
</svg>